<?xml version="1.0" encoding="UTF-8"?>
<svg id="Layer_1" data-name="Layer 1" xmlns="http://www.w3.org/2000/svg" viewBox="0 0 553.5 351.5">
  <defs>
    <style>
      .cls-1 {
        fill: #444139;
      }

      .cls-1, .cls-2 {
        stroke-width: 0px;
      }

      .cls-2 {
        fill: #edece6;
      }
    </style>
  </defs>
  <rect class="cls-1" width="553.5" height="351.5" rx="12.94" ry="12.94"/>
  <path class="cls-2" d="m524.19,208c.02,24.03-18.92,43.01-43.87,43.51,14.38-8.17,24.09-23.62,24.09-41.35s-10.54-34.46-25.92-42.33c14.65-12.1,32.78,1.07,32.78,1.07l5.3-3.53c-10.52-7.36-27.43-7.47-40.66,1.23-5.37-2.35-11.26-3.73-17.45-3.93h-.07c-.23,0-.45-.02-.68-.02-.28,0-.55-.02-.83-.02h-1.4c-9.68,0-11.84.91-15.6,2.83-21.79,11.08-31.24,26.93-35.64,46.99l9.09-7.57c5.45-24.83,14.11-36.05,32.91-36.05h7.82c-8.98,3.88-14.51,30-31.61,71.52-4.15,9.96-7.85,11.5-12.06,11.5-3.79,0-7.73-.56-10.38-1.26l-11.16,7.1h8.33c15.51.28,29.12-8.7,37.74-30.72l20.04-53.37c1.17-3.07,2.45-4.77,2.45-4.77h1.4c4.19,0,8.26.59,12.13,1.67-4.72,4.3-8.69,9.97-11.3,17.11-3.88,10.62-16.22,43.88-17.52,46.61-3.29,6.94-8.86,17.52-18.59,22.34l.21,1.16h53.65c28.12,0,49.61-21.98,49.33-49.7h-2.51l-.02-.02Zm-65.39,43.5h-24.21s7.71-3.26,13.16-13.22c2.13-3.9,18.54-50.03,18.54-50.03,2.34-7.31,5.22-12.67,8.37-16.53,15.91,5.99,27.52,20.72,27.52,38.45,0,23.23-19.93,41.34-43.38,41.34h0Z"/>
</svg>