<?xml version="1.0" encoding="UTF-8"?>
<svg id="Layer_2" data-name="Layer 2" xmlns="http://www.w3.org/2000/svg" xmlns:xlink="http://www.w3.org/1999/xlink" viewBox="0 0 1577 1014">
  <defs>
    <style>
      .cls-1 {
        fill: #d5d3c6;
        filter: url(#drop-shadow-1);
      }

      .cls-1, .cls-2 {
        stroke-width: 0px;
      }

      .cls-2 {
        fill: #181818;
      }
    </style>
    <filter id="drop-shadow-1" filterUnits="userSpaceOnUse">
      <feOffset dx="0" dy="0"/>
      <feGaussianBlur result="blur" stdDeviation="9"/>
      <feFlood flood-color="#000" flood-opacity=".61"/>
      <feComposite in2="blur" operator="in"/>
      <feComposite in="SourceGraphic"/>
    </filter>
  </defs>
  <g id="Layer_1-2" data-name="Layer 1">
    <g>
      <rect class="cls-1" x="27.89" y="27.37" width="1521.51" height="959.41" rx="39.75" ry="39.75"/>
      <path class="cls-2" d="m1019.6,503.08c.04,80.89-63.7,144.79-147.65,146.44,48.44-27.53,81.13-79.52,81.13-139.18s-35.48-116.01-87.27-142.49c49.33-40.73,110.36,3.59,110.36,3.59l17.84-11.87c-35.44-24.78-92.31-25.15-136.88,4.16-18.08-7.91-37.9-12.55-58.73-13.24h-.24c-.81-.04-1.53-.04-2.3-.08-.93,0-1.86-.08-2.79-.08h-4.72c-32.61,0-39.88,3.07-52.51,9.53-73.34,37.3-105.15,90.66-119.96,158.19l30.6-25.51c18.33-83.6,47.51-121.38,110.76-121.38h26.32c-30.23,13.04-48.84,100.99-106.44,240.78-13.97,33.54-26.44,38.71-40.61,38.71-12.76,0-26.04-1.9-34.96-4.24l-37.58,23.9h28.01c52.19.93,98.05-29.26,127.03-103.41l67.49-179.66c3.96-10.33,8.23-16.07,8.23-16.07h4.72c14.09,0,27.81,1.98,40.81,5.61-15.9,14.49-29.26,33.54-38.06,57.6-13.08,35.76-54.61,147.73-58.97,156.9-11.06,23.37-29.83,58.97-62.57,75.2l.69,3.88h180.59c94.66,0,166.99-73.99,166.06-167.31h-8.48l.08.04Zm-220.15,146.44h-81.5s25.95-10.98,44.28-44.52c7.18-13.16,62.4-168.4,62.4-168.4,7.87-24.62,17.56-42.63,28.17-55.66,53.56,20.18,92.64,69.75,92.64,129.41,0,78.23-67.09,139.14-146.04,139.14l.04.04Z"/>
    </g>
  </g>
</svg>